M48
; DRILL file {KiCad (6.0.11)} date Fri Mar 24 12:07:15 2023
; FORMAT={-:-/ absolute / inch / decimal}
; #@! TF.CreationDate,2023-03-24T12:07:15+00:00
; #@! TF.GenerationSoftware,Kicad,Pcbnew,(6.0.11)
; #@! TF.FileFunction,Plated,1,2,PTH
FMAT,2
INCH
; #@! TA.AperFunction,Plated,PTH,ComponentDrill
T1C0.0200
; #@! TA.AperFunction,Plated,PTH,ComponentDrill
T2C0.0295
; #@! TA.AperFunction,Plated,PTH,ComponentDrill
T3C0.0300
; #@! TA.AperFunction,Plated,PTH,ComponentDrill
T4C0.0315
; #@! TA.AperFunction,Plated,PTH,ComponentDrill
T5C0.0354
; #@! TA.AperFunction,Plated,PTH,ViaDrill
T6C0.0394
; #@! TA.AperFunction,Plated,PTH,ComponentDrill
T7C0.0394
; #@! TA.AperFunction,Plated,PTH,ComponentDrill
T8C0.0433
; #@! TA.AperFunction,Plated,PTH,ComponentDrill
T9C0.0610
; #@! TA.AperFunction,Plated,PTH,ComponentDrill
T10C0.0630
; #@! TA.AperFunction,Plated,PTH,ComponentDrill
T11C0.1280
%
G90
G05
T1
X7.0303Y-2.2232
X7.1303Y-2.1232
X7.1303Y-2.3232
X7.8457Y-2.2256
X7.9457Y-2.1256
X7.9457Y-2.3256
X8.6087Y-2.939
X8.7087Y-2.839
X8.7087Y-3.039
T2
X7.3622Y-2.5193
X7.3622Y-2.5693
X7.3622Y-2.6193
X7.6378Y-2.7083
X7.6378Y-2.7583
X7.6378Y-2.8083
T3
X7.0958Y-3.8717
X7.0958Y-3.9701
X7.0978Y-4.231
X7.0978Y-4.3294
X7.624Y-3.8676
X7.624Y-3.966
X7.625Y-4.2318
X7.625Y-4.3302
T4
X7.3866Y-1.7244
X7.3866Y-2.1244
X7.5205Y-1.7244
X7.5205Y-2.1244
X8.2244Y-1.7213
X8.2244Y-2.1213
X8.3583Y-1.7213
X8.3583Y-2.1213
T5
X0.8809Y-2.8272
X0.8809Y-3.4417
X1.251Y-3.0094
X1.251Y-3.1094
X1.251Y-3.2094
X1.251Y-3.3094
X1.351Y-2.9594
X1.351Y-3.0594
X1.351Y-3.1594
X1.351Y-3.2594
T6
X1.5748Y-3.7008
X2.874Y-2.8819
X2.899Y-4.0423
X3.0852Y-3.538
X3.3907Y-2.5783
X3.4203Y-2.8884
X3.5948Y-2.3743
X3.9321Y-3.6467
X4.0551Y-3.5876
X4.0994Y-4.4094
X4.1535Y-3.6171
X4.247Y-2.3573
X4.5128Y-2.3573
X4.5571Y-3.7746
X5.0148Y-3.6417
X6.5433Y-4.2362
X7.4267Y-4.2302
X7.4563Y-2.8661
X7.4724Y-3.0709
X7.874Y-4.3504
T7
X6.1724Y-1.7783
X6.1724Y-1.8783
X6.1724Y-1.9783
X6.1724Y-2.0783
X6.1724Y-2.1783
X6.1724Y-2.2783
X6.1724Y-2.3783
X6.1724Y-2.4783
X6.1724Y-2.5783
X6.1724Y-2.6783
X6.1724Y-2.7783
X6.1724Y-2.8783
X6.1724Y-2.9783
X6.1724Y-3.0783
X6.1724Y-3.1783
X6.1724Y-3.2783
X6.1724Y-3.3783
X6.1724Y-3.4783
X6.1724Y-3.5783
X6.1724Y-3.6783
X6.1724Y-3.7783
X6.1724Y-3.8783
X6.1724Y-3.9783
X6.1724Y-4.0783
X6.7724Y-1.7783
X6.7724Y-1.8783
X6.7724Y-1.9783
X6.7724Y-2.0783
X6.7724Y-2.1783
X6.7724Y-2.2783
X6.7724Y-2.3783
X6.7724Y-2.4783
X6.7724Y-2.5783
X6.7724Y-2.6783
X6.7724Y-2.7783
X6.7724Y-2.8783
X6.7724Y-2.9783
X6.7724Y-3.0783
X6.7724Y-3.1783
X6.7724Y-3.2783
X6.7724Y-3.3783
X6.7724Y-3.4783
X6.7724Y-3.5783
X6.7724Y-3.6783
X6.7724Y-3.7783
X6.7724Y-3.8783
X6.7724Y-3.9783
X6.7724Y-4.0783
T8
X7.3024Y-2.3199
X7.4024Y-2.3199
X7.5024Y-2.3199
X8.1449Y-2.3041
X8.2449Y-2.3041
X8.3449Y-2.3041
T9
X8.1481Y-3.7867
X8.1481Y-4.3969
X8.6206Y-3.7867
X8.6206Y-4.3969
T10
X8.152Y-2.6004
X8.152Y-2.8004
X8.152Y-3.128
X8.152Y-3.328
X8.252Y-2.7004
X8.252Y-3.228
X8.352Y-2.6004
X8.352Y-2.8004
X8.352Y-3.128
X8.352Y-3.328
T11
X1.001Y-2.9094
X1.001Y-3.3594
T0
M30
